        <svg width="101" height="69" viewBox="0 0 101 69" fill="none" xmlns="http://www.w3.org/2000/svg">
        <path d="M10.8586 40.0611H14.3292L14.9938 42.1645H17.6041L14.2114 32.125H10.9764L7.5752 42.1729H10.1876L10.8586 40.0611ZM12.6233 34.6491L13.7507 38.2248H11.437L12.5539 34.6491H12.6233Z" fill="url(#paint0_linear_217_90)"/>
        <path d="M21.1189 38.1299H25.1153V36.1507H21.1189V34.0893H25.5528V32.1143H18.6895V42.1706H21.1189V38.1299Z" fill="url(#paint1_linear_217_90)"/>
        <path d="M34.1345 37.2399C34.4524 36.7036 34.6107 36.0878 34.5909 35.4647C34.608 34.8405 34.4537 34.2237 34.145 33.681C33.8478 33.1787 33.4087 32.7754 32.883 32.522C32.2692 32.2393 31.598 32.1032 30.9226 32.1245H26.7705V42.1808H29.1999V38.7291H30.4451L32.2835 42.1724H34.9359L32.8493 38.3442C33.3783 38.1127 33.8259 37.7281 34.1345 37.2399V37.2399ZM29.1999 34.0848H30.3989C30.7116 34.0756 31.0232 34.1278 31.3159 34.2384C31.5488 34.3277 31.7471 34.4891 31.8817 34.699C32.0173 34.9338 32.0837 35.2022 32.0731 35.4731C32.0848 35.7408 32.0183 36.0061 31.8817 36.2366C31.7464 36.4399 31.5496 36.5947 31.3201 36.6783C31.0246 36.7829 30.7123 36.8321 30.3989 36.8234H29.1999V34.0848Z" fill="url(#paint2_linear_217_90)"/>
        <path d="M38.3503 32.1143H35.9209V42.1685H38.3503V32.1143Z" fill="url(#paint3_linear_217_90)"/>
        <path d="M46.3725 41.9929C46.8774 41.8041 47.3404 41.5182 47.7355 41.1516C48.0964 40.8123 48.3947 40.4121 48.6169 39.9694C48.8304 39.5564 48.9645 39.1069 49.0123 38.6443H46.5471C46.5092 38.8727 46.4316 39.0926 46.3179 39.2943C46.2106 39.4821 46.0677 39.6472 45.8972 39.7802C45.7223 39.9159 45.5242 40.0185 45.3124 40.083C45.0744 40.1546 44.8269 40.1894 44.5784 40.1861C44.1369 40.206 43.7006 40.0851 43.3324 39.8409C42.9641 39.5966 42.683 39.2417 42.5296 38.8273C42.1496 37.755 42.1496 36.5847 42.5296 35.5124C42.6917 35.094 42.9743 34.7331 43.3416 34.4754C43.7158 34.23 44.1563 34.1052 44.6036 34.1178C44.8599 34.1146 45.1151 34.1537 45.3587 34.2335C45.5752 34.3044 45.7759 34.4165 45.9498 34.5637C46.117 34.7092 46.2536 34.8865 46.3515 35.0854C46.4591 35.2992 46.5302 35.5296 46.5618 35.7669H49.0123C48.966 35.2073 48.811 34.6622 48.5559 34.162C48.32 33.7061 47.9945 33.3026 47.5988 32.9757C47.1939 32.647 46.7308 32.3973 46.2337 32.2395C45.6895 32.0676 45.1217 31.9824 44.551 31.9871C43.7058 31.9748 42.8718 32.1813 42.13 32.5866C41.4018 32.9927 40.8071 33.6013 40.4179 34.3387C40.0014 35.2167 39.7845 36.1759 39.7827 37.1476C39.7809 38.1193 39.9942 39.0794 40.4073 39.9589C40.7918 40.6973 41.3831 41.3077 42.109 41.7153C42.8569 42.1244 43.6986 42.3318 44.551 42.3168C45.1731 42.3232 45.7908 42.2134 46.3725 41.9929Z" fill="url(#paint4_linear_217_90)"/>
        <path d="M56.4449 40.0611L57.1075 42.1645H59.7178L56.325 32.125H53.09L49.6973 42.1813H52.3097L52.9722 40.0779L56.4449 40.0611ZM54.7454 34.6491L55.8644 38.2248H53.5507L54.6676 34.6491H54.7454Z" fill="url(#paint5_linear_217_90)"/>
        <path d="M7.96289 46.414H9.67084V51.3591H10.163V46.414H11.871V45.9702H7.96289V46.414Z" fill="#FCFCFC"/>
        <path d="M14.0517 47.2541C13.8114 47.2503 13.5749 47.3152 13.3702 47.4413C13.1794 47.5552 13.0316 47.729 12.9496 47.9356H12.9159V47.3151H12.4595V51.3557H12.9285V48.7391C12.9237 48.5544 12.9709 48.3722 13.0646 48.213C13.1583 48.0538 13.2948 47.9242 13.4586 47.8388C13.6316 47.7476 13.8247 47.7013 14.0202 47.7042C14.0769 47.7008 14.1338 47.7008 14.1906 47.7042L14.302 47.721V47.2667H14.1842L14.0517 47.2541Z" fill="#FCFCFC"/>
        <path d="M17.4929 47.5306C17.3522 47.4311 17.1937 47.3597 17.0259 47.3203C16.8683 47.2811 16.7066 47.2606 16.5443 47.2593C16.3384 47.2593 16.1337 47.289 15.9364 47.3476C15.7379 47.4061 15.5533 47.5041 15.3937 47.6358C15.2249 47.7778 15.0947 47.9601 15.0151 48.1658L15.4589 48.3257C15.5422 48.1411 15.6765 47.9842 15.8459 47.8735C16.0571 47.7368 16.3056 47.6692 16.5569 47.68C16.6847 47.6714 16.8129 47.6881 16.9342 47.7293C17.0555 47.7704 17.1674 47.8352 17.2636 47.9197C17.3477 48.0049 17.413 48.1067 17.4554 48.2187C17.4978 48.3306 17.5163 48.4502 17.5097 48.5697V48.6643C17.5127 48.7092 17.5026 48.754 17.4806 48.7933C17.4585 48.8325 17.4255 48.8644 17.3856 48.8852C17.2729 48.9405 17.151 48.9747 17.0259 48.9862L16.4517 49.0598C16.2389 49.0842 16.028 49.1235 15.8207 49.1776C15.6468 49.2221 15.4808 49.293 15.3285 49.3879C15.195 49.471 15.085 49.5869 15.0088 49.7244C14.9285 49.8803 14.8894 50.0541 14.8952 50.2293C14.8873 50.463 14.9496 50.6938 15.074 50.8918C15.1917 51.0746 15.3587 51.2204 15.5557 51.3125C15.7648 51.4109 15.9935 51.4605 16.2245 51.4576C16.4256 51.4622 16.6254 51.4249 16.8114 51.3483C16.9684 51.285 17.1113 51.1914 17.2321 51.0727C17.3349 50.9723 17.4196 50.8549 17.4824 50.7257H17.5118V51.3567H17.9788V48.6118C17.9868 48.3816 17.9415 48.1526 17.8462 47.9429C17.7656 47.7775 17.6439 47.6356 17.4929 47.5306V47.5306ZM17.5097 49.8065C17.5114 50.0177 17.4601 50.226 17.3604 50.4123C17.263 50.5951 17.1176 50.7478 16.9397 50.854C16.7439 50.9678 16.5204 51.0253 16.2939 51.0201C16.0563 51.0267 15.8235 50.9525 15.6335 50.8098C15.5466 50.7433 15.4773 50.6566 15.4315 50.5573C15.3857 50.458 15.3648 50.349 15.3706 50.2398C15.3646 50.0949 15.41 49.9526 15.4989 49.838C15.5988 49.7257 15.7264 49.6415 15.8691 49.594C16.058 49.5268 16.2543 49.4823 16.4538 49.4615L16.7378 49.4237C16.8429 49.411 16.9481 49.3942 17.0554 49.3732C17.1509 49.3567 17.245 49.3335 17.3372 49.3038C17.4009 49.2857 17.4603 49.2549 17.5118 49.2133L17.5097 49.8065Z" fill="#FCFCFC"/>
        <path d="M21.9608 48.0883H21.9187C21.8568 47.9552 21.7798 47.8296 21.6894 47.7139C21.5829 47.5805 21.4497 47.4709 21.2982 47.3921C21.1071 47.2994 20.8963 47.2547 20.684 47.2617C20.372 47.2558 20.066 47.3477 19.809 47.5246C19.5499 47.7096 19.3474 47.963 19.2243 48.2566C18.9428 48.9593 18.9428 49.7435 19.2243 50.4462C19.3472 50.7399 19.5488 50.9939 19.8069 51.1803C20.0621 51.3577 20.367 51.4497 20.6777 51.4432C20.8902 51.4505 21.1013 51.4049 21.2919 51.3107C21.4452 51.232 21.58 51.1216 21.6873 50.9868C21.7801 50.8708 21.8578 50.7436 21.9187 50.6082H21.9734V51.3591H22.4319V45.9702H21.9608V48.0883ZM21.8219 50.2148C21.7384 50.4466 21.5929 50.651 21.4013 50.8059C21.2089 50.9505 20.9729 51.0247 20.7324 51.0162C20.4868 51.0235 20.2465 50.9447 20.053 50.7933C19.8606 50.6348 19.7152 50.4268 19.6323 50.1917C19.4417 49.647 19.4417 49.0537 19.6323 48.509C19.7167 48.2771 19.862 48.0722 20.053 47.9158C20.251 47.7756 20.4876 47.7002 20.7303 47.7002C20.9729 47.7002 21.2096 47.7756 21.4076 47.9158C21.599 48.0675 21.7446 48.2691 21.8283 48.4985C22.0232 49.0569 22.0232 49.6649 21.8283 50.2233L21.8219 50.2148Z" fill="#FCFCFC"/>
        <path d="M26.5065 47.7455C26.3518 47.5865 26.1655 47.4618 25.9596 47.3795C25.7586 47.3004 25.5446 47.2598 25.3286 47.2596C25.0009 47.2532 24.6792 47.3479 24.4073 47.5309C24.1325 47.7164 23.9142 47.974 23.7763 48.2755C23.6234 48.62 23.5501 48.9946 23.5618 49.3714C23.5546 49.7441 23.6316 50.1136 23.7868 50.4525C23.9273 50.7604 24.156 51.0197 24.4439 51.1976C24.7319 51.3754 25.0661 51.4638 25.4043 51.4516C25.6497 51.4558 25.8934 51.4115 26.1216 51.3212C26.3172 51.2432 26.4942 51.125 26.6411 50.9742C26.7742 50.8411 26.8774 50.6812 26.944 50.5051L26.4981 50.36C26.4423 50.4897 26.3613 50.607 26.2598 50.7052C26.1584 50.8034 26.0385 50.8805 25.907 50.9321C25.7473 50.9958 25.5763 51.0266 25.4043 51.0225C25.1469 51.0294 24.8932 50.9607 24.6744 50.8248C24.4667 50.689 24.3024 50.4962 24.2012 50.2695C24.0934 50.0228 24.0383 49.7563 24.0392 49.4871H27.0429V49.2536C27.0495 48.9544 27.0018 48.6565 26.9019 48.3744C26.8164 48.139 26.6815 47.9246 26.5065 47.7455V47.7455ZM24.0371 49.0622C24.0471 48.8437 24.1 48.6293 24.1928 48.4312C24.2954 48.2144 24.4527 48.0281 24.6492 47.8906C24.8459 47.7499 25.0826 47.6761 25.3244 47.6803C25.5478 47.6784 25.767 47.7412 25.9554 47.8611C26.1418 47.9838 26.2915 48.1546 26.3887 48.3554C26.4961 48.5731 26.5501 48.8132 26.5465 49.0559L24.0371 49.0622Z" fill="#FCFCFC"/>
        <path d="M32.471 49.1887H34.0339C34.0394 49.5096 33.9672 49.8271 33.8235 50.1142C33.6906 50.3778 33.4837 50.5971 33.2283 50.7452C32.9427 50.899 32.6217 50.975 32.2975 50.9654C31.9733 50.9558 31.6574 50.861 31.3815 50.6905C31.0894 50.4953 30.8588 50.221 30.7168 49.8996C30.3942 49.1044 30.3942 48.2149 30.7168 47.4197C30.8564 47.0994 31.084 46.8251 31.3731 46.6288C31.653 46.4461 31.9811 46.3509 32.3154 46.3554C32.5217 46.3526 32.7269 46.3868 32.9212 46.4564C33.0967 46.5201 33.2597 46.6141 33.4028 46.734C33.5421 46.8541 33.6608 46.9962 33.7541 47.1547C33.8472 47.3124 33.918 47.4823 33.9644 47.6595H34.4714C34.4298 47.422 34.3472 47.1935 34.2274 46.9843C34.1069 46.7722 33.9511 46.5823 33.7667 46.4227C33.5748 46.2582 33.3555 46.1286 33.1189 46.0399C32.5508 45.8376 31.9273 45.8571 31.3731 46.0946C31.0909 46.2241 30.841 46.4144 30.6411 46.652C30.4262 46.9088 30.264 47.2054 30.1636 47.5249C30.0473 47.895 29.9905 48.2812 29.9953 48.6691C29.9819 49.1756 30.0818 49.6786 30.2877 50.1415C30.4651 50.534 30.7503 50.8681 31.1101 51.1048C31.4642 51.3158 31.8663 51.4327 32.2782 51.4445C32.6902 51.4563 33.0983 51.3625 33.4638 51.1721C33.7865 50.99 34.0518 50.7212 34.2295 50.396C34.4225 50.0288 34.5181 49.6181 34.5071 49.2034V48.7406H32.4605L32.471 49.1887Z" fill="#FCFCFC"/>
        <path d="M38.039 47.5306C37.8979 47.4318 37.7395 47.3605 37.572 47.3203C37.4137 47.2811 37.2513 47.2606 37.0882 47.2593C36.8824 47.2594 36.6777 47.2892 36.4804 47.3476C36.2824 47.4057 36.0984 47.5038 35.9398 47.6358C35.7709 47.7782 35.6401 47.9603 35.5591 48.1658L36.005 48.3257C36.0872 48.1411 36.2208 47.9841 36.3899 47.8735C36.6011 47.7368 36.8496 47.6692 37.1009 47.68C37.2287 47.6714 37.3569 47.6881 37.4782 47.7293C37.5995 47.7704 37.7114 47.8352 37.8076 47.9197C37.8917 48.0049 37.957 48.1067 37.9994 48.2187C38.0418 48.3306 38.0603 48.4502 38.0537 48.5697V48.6643C38.057 48.7093 38.047 48.7542 38.0249 48.7935C38.0028 48.8327 37.9697 48.8646 37.9296 48.8852C37.8175 48.9402 37.6963 48.9744 37.572 48.9862L36.9957 49.0598C36.7828 49.0841 36.572 49.1234 36.3647 49.1776C36.1908 49.2221 36.0248 49.293 35.8725 49.3879C35.7384 49.471 35.6277 49.5868 35.5507 49.7244C35.4704 49.8803 35.4313 50.0541 35.4371 50.2293C35.43 50.4632 35.493 50.6939 35.618 50.8918C35.7344 51.075 35.9008 51.221 36.0975 51.3125C36.3067 51.4109 36.5354 51.4605 36.7664 51.4576C36.9675 51.4626 37.1675 51.4253 37.3533 51.3483C37.5099 51.2842 37.6527 51.1907 37.7739 51.0727C37.8762 50.9723 37.9601 50.8548 38.0221 50.7257H38.0516V51.3567H38.5206V48.6118C38.5288 48.3813 38.4827 48.1522 38.386 47.9429C38.3073 47.7782 38.1879 47.6363 38.039 47.5306V47.5306ZM38.0537 49.8065C38.056 50.0175 38.0054 50.2258 37.9065 50.4123C37.8084 50.5946 37.6631 50.7472 37.4858 50.854C37.2892 50.9678 37.065 51.0253 36.8379 51.0201C36.6003 51.0267 36.3675 50.9525 36.1775 50.8098C36.0909 50.7431 36.0218 50.6563 35.976 50.5571C35.9302 50.4578 35.9091 50.349 35.9146 50.2398C35.9086 50.0949 35.954 49.9526 36.0429 49.838C36.1432 49.7252 36.2717 49.641 36.4152 49.594C36.6033 49.5266 36.799 49.4821 36.9978 49.4615L37.2839 49.4237C37.389 49.411 37.4942 49.3942 37.5994 49.3732C37.6949 49.357 37.7891 49.3338 37.8812 49.3038C37.9453 49.2867 38.0049 49.2558 38.0558 49.2133L38.0537 49.8065Z" fill="#FCFCFC"/>
        <path d="M41.2708 50.9461C41.2187 50.9551 41.1659 50.9594 41.113 50.9587C41.0112 50.9597 40.9102 50.9397 40.8165 50.8998C40.7196 50.8567 40.6397 50.7827 40.5893 50.6894C40.5251 50.5672 40.4953 50.4298 40.5031 50.2919V47.7216H41.357V47.3156H40.5031V46.3459H40.0319V47.3156H39.4282V47.7216H40.0319V50.4223C40.025 50.6185 40.0778 50.8121 40.1833 50.9776C40.2817 51.1225 40.4167 51.2386 40.5746 51.3141C40.806 51.4231 41.0663 51.4548 41.3171 51.4046C41.3743 51.3926 41.4305 51.3764 41.4853 51.3562L41.3865 50.9355C41.3483 50.9421 41.3096 50.9456 41.2708 50.9461Z" fill="#FCFCFC"/>
        <path d="M45.1246 47.7455C44.9696 47.586 44.7825 47.4612 44.5756 47.3795C44.3747 47.3002 44.1606 47.2595 43.9446 47.2596C43.6163 47.2532 43.2939 47.3479 43.0212 47.5309C42.7463 47.7162 42.5279 47.9739 42.3902 48.2755C42.2342 48.6157 42.1572 48.9867 42.1651 49.3609C42.157 49.7337 42.234 50.1034 42.3902 50.442C42.5267 50.7415 42.7456 50.9961 43.0212 51.1761C43.3145 51.3577 43.6544 51.4498 43.9993 51.4411C44.2446 51.4455 44.4884 51.4011 44.7165 51.3107C44.9128 51.2327 45.0905 51.1145 45.2382 50.9636C45.3707 50.8305 45.4732 50.6706 45.539 50.4946L45.0952 50.3495C45.041 50.473 44.9647 50.5857 44.8701 50.6818C44.766 50.7862 44.6414 50.8679 44.5041 50.9216C44.3435 50.9851 44.1719 51.0158 43.9993 51.012C43.7426 51.019 43.4894 50.9502 43.2715 50.8143C43.0626 50.6792 42.8974 50.4863 42.7962 50.259C42.6894 50.012 42.6342 49.7457 42.6342 49.4765H45.6462V49.2431C45.6523 48.9438 45.6038 48.6458 45.5032 48.3639C45.4213 48.1337 45.2924 47.9231 45.1246 47.7455V47.7455ZM42.6531 49.0622C42.6631 48.8437 42.716 48.6293 42.8088 48.4312C42.9121 48.2148 43.0692 48.0287 43.2652 47.8906C43.4628 47.7501 43.7001 47.6764 43.9425 47.6803C44.166 47.6779 44.3853 47.7407 44.5735 47.8611C44.763 47.9853 44.9156 48.1583 45.0152 48.3618C45.1209 48.58 45.1742 48.8198 45.1709 49.0622H42.6531Z" fill="#FCFCFC"/>
        <path d="M50.2778 50.6406H50.242L49.2955 47.3152H48.797L47.8421 50.6491H47.8084L46.8514 47.3152H46.355L47.577 51.3558H48.0608L49.0179 48.043H49.0683L50.0254 51.3558H50.5092L51.7312 47.3152H51.2369L50.2778 50.6406Z" fill="#FCFCFC"/>
        <path d="M55.0385 47.5306C54.8978 47.4311 54.7393 47.3597 54.5715 47.3203C54.4139 47.2811 54.2522 47.2606 54.0899 47.2593C53.884 47.2593 53.6793 47.289 53.482 47.3476C53.2835 47.4061 53.0989 47.5041 52.9393 47.6358C52.7705 47.7778 52.6403 47.9601 52.5607 48.1658L53.0087 48.3194C53.0927 48.1353 53.2268 47.9785 53.3957 47.8671C53.6069 47.7305 53.8554 47.6629 54.1067 47.6736C54.2345 47.6651 54.3627 47.6818 54.484 47.723C54.6053 47.7641 54.7172 47.8289 54.8134 47.9134C54.8975 47.9986 54.9628 48.1004 55.0052 48.2124C55.0476 48.3243 55.0661 48.4439 55.0595 48.5634V48.658C55.0625 48.7029 55.0524 48.7477 55.0304 48.7869C55.0083 48.8262 54.9753 48.8581 54.9354 48.8789C54.8227 48.9342 54.7008 48.9684 54.5757 48.9798L54.0015 49.0535C53.7887 49.0779 53.5778 49.1172 53.3705 49.1712C53.1966 49.2157 53.0306 49.2867 52.8783 49.3816C52.7453 49.4653 52.6353 49.581 52.5586 49.7181C52.4783 49.874 52.4392 50.0477 52.445 50.2229C52.4371 50.4567 52.4994 50.6875 52.6238 50.8855C52.7415 51.0683 52.9085 51.2141 53.1055 51.3062C53.3146 51.4046 53.5433 51.4542 53.7743 51.4513C53.9754 51.4559 54.1752 51.4186 54.3612 51.3419C54.5182 51.2787 54.6611 51.1851 54.7819 51.0664C54.8847 50.966 54.9694 50.8486 55.0322 50.7193H55.0616V51.3504H55.5328V48.6118C55.5408 48.3816 55.4955 48.1526 55.4003 47.9429C55.3173 47.7765 55.1926 47.6345 55.0385 47.5306ZM55.0553 49.8065C55.0575 50.0216 55.0046 50.2338 54.9018 50.4228C54.8044 50.6056 54.659 50.7583 54.4811 50.8645C54.2853 50.9783 54.0618 51.0359 53.8353 51.0306C53.5977 51.0372 53.3649 50.963 53.1749 50.8203C53.088 50.7538 53.0187 50.6671 52.9729 50.5678C52.9271 50.4685 52.9062 50.3595 52.912 50.2503C52.906 50.1054 52.9514 49.9631 53.0403 49.8485C53.1402 49.7362 53.2678 49.652 53.4105 49.6045C53.5994 49.5373 53.7957 49.4928 53.9952 49.472L54.2792 49.4342C54.3843 49.4216 54.4895 49.4047 54.5968 49.3837C54.6922 49.3673 54.7864 49.3441 54.8786 49.3143C54.9423 49.2962 55.0017 49.2654 55.0532 49.2238L55.0553 49.8065Z" fill="#FCFCFC"/>
        <path d="M59.2411 47.3152L58.0422 50.7374H58.0043L56.8054 47.3152H56.2964L57.7835 51.3958L57.6362 51.8164C57.5814 51.9831 57.4934 52.1369 57.3775 52.2687C57.2915 52.3633 57.1743 52.4238 57.0473 52.439C56.9049 52.4482 56.762 52.4296 56.6266 52.3844L56.5004 52.805C56.5624 52.8301 56.6265 52.8498 56.6918 52.8639C56.7777 52.8812 56.8651 52.8896 56.9526 52.8892C57.1119 52.8914 57.2698 52.8591 57.4154 52.7945C57.5571 52.7256 57.6814 52.6256 57.7793 52.5021C57.8933 52.3548 57.9828 52.19 58.0443 52.0142L59.7396 47.3152H59.2411Z" fill="#FCFCFC"/>
        <path d="M87.0306 27.0312L86.9654 26.966C86.1241 25.8364 85.2953 24.9783 84.5423 24.4419H81.3704C81.6612 24.8732 81.9736 25.2895 82.3064 25.6892L82.5168 25.9479L82.8407 26.0468C83.2614 26.1646 84.1995 26.9765 85.2827 28.4594L85.3942 28.6066L85.5414 28.7181C87.2241 29.9128 88.1581 30.8656 88.1581 31.4062C88.1581 32.0372 87.0054 32.9585 84.7359 34.5718C81.6165 36.9129 81.9636 40.007 82.2644 42.7414C82.3962 43.6869 82.4574 44.641 82.4474 45.5957V45.7071L82.3695 45.7892C82.0183 46.1594 81.4462 46.5001 80.8972 46.8409C79.9633 47.4109 78.9095 48.0524 78.3331 49.1041L78.1628 49.4217L78.209 49.7814C78.3521 50.9214 77.5275 52.0468 76.6567 53.2352C76.0891 53.9547 75.5958 54.7299 75.1844 55.5489L75.1549 55.6183L75.096 55.6604C73.1546 57.1012 71.5897 57.667 70.437 57.3431C69.4253 57.0549 68.5671 56.0137 67.8772 54.249L67.8604 54.1607C67.8246 53.3067 69.0067 52.52 70.6894 51.5083C72.2123 50.5828 73.6552 49.7141 73.9013 48.3301C73.957 47.9722 73.9331 47.6065 73.8313 47.2589C73.7295 46.9113 73.5523 46.5905 73.3123 46.3192C70.66 43.0022 70.2666 37.8194 69.9469 33.6484C69.8754 32.725 69.7997 31.7554 69.705 30.8783L69.6693 30.5543H70.5527L68.4935 26.9786L66.4343 30.5543H67.4102L67.4397 30.8131C67.547 31.7259 67.629 32.7419 67.711 33.8125C68.0518 38.2948 68.4767 43.8667 71.5581 47.7243L71.7054 47.901L71.5876 48.1113C71.2931 48.492 70.4055 49.0452 69.5284 49.5837C67.6879 50.6964 65.1701 52.2192 65.6749 54.7244L65.7233 54.8947C66.6825 57.4546 68.0644 59.0005 69.8228 59.5012C71.7937 60.0543 74.0464 59.314 76.764 57.2064L77.0101 57.0129L77.1237 56.7184C77.3824 56.0369 77.8998 55.3259 78.453 54.5729C79.3996 53.2835 80.4639 51.8259 80.4576 50.0612V49.9434L80.5354 49.8592C80.893 49.4722 81.4882 49.1125 82.0519 48.7655C82.9227 48.2375 83.9113 47.6359 84.4876 46.702L84.6286 46.4728L84.6517 46.2078C84.759 44.9457 84.6223 43.7005 84.4876 42.5016C84.1763 39.683 84.0817 37.8741 86.0336 36.4018C88.4757 34.6707 90.394 33.3077 90.394 31.4125C90.4066 29.6898 88.7007 28.2301 87.0306 27.0312Z" fill="url(#paint6_linear_217_90)"/>
        <path d="M80.2936 23.8657H82.0836H84.7233L89.5359 23.8552V24.7428L93.1116 22.6836L89.5359 20.6265V21.6067H89.2414C88.3411 21.6067 86.0169 21.6067 82.9312 21.6067H77.8137H77.8242C75.9311 21.6067 73.9161 21.6067 71.8758 21.6067C62.9532 21.6067 53.5174 21.6298 51.0523 21.6361H50.7347L50.7704 21.1713C50.9997 18.2896 51.3468 13.9293 54.4114 12.56L54.5123 12.5348C55.1244 12.5011 56.0058 12.3013 57.394 11.9648C58.5761 11.6892 61.0307 11.1003 62.3832 11.054L62.8586 11.0351L62.6651 11.4557C62.5547 11.6994 62.5217 11.971 62.5704 12.234C62.6188 12.4655 62.7223 12.6819 62.872 12.865C63.0217 13.0481 63.2134 13.1924 63.4307 13.2857L63.4833 13.3278C64.129 13.8746 64.9241 13.9272 65.5068 13.9588L65.7297 13.9777L65.8054 14.0471C66.1777 14.4068 67.1705 15.265 68.359 15.5195C69.3539 15.7551 69.9407 15.3617 70.2646 14.9915C70.4493 14.772 70.5919 14.5203 70.6853 14.249L70.7799 13.9903L71.045 14.0682C71.4859 14.216 71.9142 14.3989 72.3259 14.615C72.5026 14.7034 72.6625 14.7791 72.8034 14.8443L73.0853 14.9726L73.3966 14.9326C73.783 14.8963 74.1727 14.9444 74.5387 15.0736L74.7259 15.1977C76.8083 16.4029 78.0724 18.6136 79.3744 20.9904H81.9321C81.7849 20.7254 81.6376 20.4624 81.4904 20.1911C80.0559 17.5745 78.5793 14.8737 75.9269 13.3025C75.1087 12.703 73.8972 12.6715 73.5501 12.6715H73.4786L73.3272 12.5874C72.1913 12.03 70.3088 11.1003 69.0257 12.417L68.8322 12.6126L68.6387 13.2773L68.3148 13.1174C67.8713 12.8781 67.4745 12.5611 67.1432 12.1814L66.8908 11.9542L66.5248 11.8722C66.2376 11.8138 65.9466 11.7765 65.654 11.7607L65.3196 11.7418V11.4074C65.4012 11.0997 65.4055 10.7766 65.3321 10.4669C65.2587 10.1572 65.1099 9.87042 64.8989 9.63211C63.6978 8.30066 60.9466 8.83703 56.8808 9.80248C55.705 10.0843 54.7101 10.3136 54.3693 10.3199L54.1043 10.2968L53.8624 10.383C49.2518 12.1078 48.8143 17.4672 48.5408 21.0135C48.4925 21.613 48.4462 22.1788 48.3873 22.631L48.2632 23.6196L49.2286 23.8657C49.6682 23.8952 64.9746 23.8952 77.8221 23.8657H80.2936Z" fill="url(#paint7_linear_217_90)"/>
        <defs>
        <linearGradient id="paint0_linear_217_90" x1="-24.7917" y1="15.7459" x2="86.6731" y2="82.5768" gradientUnits="userSpaceOnUse">
        <stop stop-color="#00003F"/>
        <stop offset="0.17" stop-color="#388CBA"/>
        <stop offset="0.3" stop-color="#00aa8c"/>
        <stop offset="0.51" stop-color="#F4C748"/>
        <stop offset="0.7" stop-color="#F7AE28"/>
        <stop offset="0.86" stop-color="#ED5312"/>
        <stop offset="1" stop-color="#BF2C2F"/>
        </linearGradient>
        <linearGradient id="paint1_linear_217_90" x1="-21.826" y1="10.7943" x2="89.6388" y2="77.6253" gradientUnits="userSpaceOnUse">
        <stop stop-color="#00003F"/>
        <stop offset="0.17" stop-color="#388CBA"/>
        <stop offset="0.3" stop-color="#00aa8c"/>
        <stop offset="0.51" stop-color="#F4C748"/>
        <stop offset="0.7" stop-color="#F7AE28"/>
        <stop offset="0.86" stop-color="#ED5312"/>
        <stop offset="1" stop-color="#BF2C2F"/>
        </linearGradient>
        <linearGradient id="paint2_linear_217_90" x1="-19.8742" y1="7.54219" x2="91.5906" y2="74.3731" gradientUnits="userSpaceOnUse">
        <stop stop-color="#00003F"/>
        <stop offset="0.17" stop-color="#388CBA"/>
        <stop offset="0.3" stop-color="#00aa8c"/>
        <stop offset="0.51" stop-color="#F4C748"/>
        <stop offset="0.7" stop-color="#F7AE28"/>
        <stop offset="0.86" stop-color="#ED5312"/>
        <stop offset="1" stop-color="#BF2C2F"/>
        </linearGradient>
        <linearGradient id="paint3_linear_217_90" x1="-17.8543" y1="4.17286" x2="93.6105" y2="71.0017" gradientUnits="userSpaceOnUse">
        <stop stop-color="#00003F"/>
        <stop offset="0.17" stop-color="#388CBA"/>
        <stop offset="0.3" stop-color="#00aa8c"/>
        <stop offset="0.51" stop-color="#F4C748"/>
        <stop offset="0.7" stop-color="#F7AE28"/>
        <stop offset="0.86" stop-color="#ED5312"/>
        <stop offset="1" stop-color="#BF2C2F"/>
        </linearGradient>
        <linearGradient id="paint4_linear_217_90" x1="-15.8919" y1="0.901098" x2="95.5729" y2="67.732" gradientUnits="userSpaceOnUse">
        <stop stop-color="#00003F"/>
        <stop offset="0.17" stop-color="#388CBA"/>
        <stop offset="0.3" stop-color="#00aa8c"/>
        <stop offset="0.51" stop-color="#F4C748"/>
        <stop offset="0.7" stop-color="#F7AE28"/>
        <stop offset="0.86" stop-color="#ED5312"/>
        <stop offset="1" stop-color="#BF2C2F"/>
        </linearGradient>
        <linearGradient id="paint5_linear_217_90" x1="-13.6567" y1="-2.82699" x2="97.808" y2="64.0018" gradientUnits="userSpaceOnUse">
        <stop stop-color="#00003F"/>
        <stop offset="0.17" stop-color="#388CBA"/>
        <stop offset="0.3" stop-color="#00aa8c"/>
        <stop offset="0.51" stop-color="#F4C748"/>
        <stop offset="0.7" stop-color="#F7AE28"/>
        <stop offset="0.86" stop-color="#ED5312"/>
        <stop offset="1" stop-color="#BF2C2F"/>
        </linearGradient>
        <linearGradient id="paint6_linear_217_90" x1="-9.43491" y1="-9.87066" x2="102.03" y2="56.9603" gradientUnits="userSpaceOnUse">
        <stop stop-color="#00003F"/>
        <stop offset="0.17" stop-color="#388CBA"/>
        <stop offset="0.3" stop-color="#00aa8c"/>
        <stop offset="0.51" stop-color="#F4C748"/>
        <stop offset="0.7" stop-color="#F7AE28"/>
        <stop offset="0.86" stop-color="#ED5312"/>
        <stop offset="1" stop-color="#BF2C2F"/>
        </linearGradient>
        <linearGradient id="paint7_linear_217_90" x1="-2.81337" y1="-20.9154" x2="108.651" y2="45.9156" gradientUnits="userSpaceOnUse">
        <stop stop-color="#00003F"/>
        <stop offset="0.17" stop-color="#388CBA"/>
        <stop offset="0.3" stop-color="#00aa8c"/>
        <stop offset="0.51" stop-color="#F4C748"/>
        <stop offset="0.7" stop-color="#F7AE28"/>
        <stop offset="0.86" stop-color="#ED5312"/>
        <stop offset="1" stop-color="#BF2C2F"/>
        </linearGradient>
        </defs>
        </svg>
